<svg width="16" height="16" viewBox="0 0 16 16" fill="none" xmlns="http://www.w3.org/2000/svg">
<path d="M7.49011 12.997C9.2751 12.634 10.7491 12.3335 10.7661 12.3295L10.7971 12.322L9.11211 10.0145C8.18511 8.74552 7.42711 7.70202 7.42711 7.69602C7.42711 7.69002 9.16711 2.16802 9.17711 2.14852C9.18061 2.14202 10.3646 4.49552 12.0476 7.85402L14.9346 13.6145L14.9566 13.6585H4.24561L7.49011 12.997Z" fill="#0089D6"/>
<path d="M1.0625 12.293C1.0625 12.29 1.8565 10.703 2.827 8.7665L4.5915 5.246L6.65 3.26C7.781 2.1675 8.7095 1.272 8.713 1.2705C8.7056 1.30363 8.69453 1.33583 8.68 1.3665L6.445 6.8795L4.25 12.2945H2.6555C2.12451 12.2999 1.59348 12.2994 1.0625 12.293Z" fill="#0089D6"/>
</svg>
