<svg width="232" height="296" viewBox="0 0 232 296" fill="none" xmlns="http://www.w3.org/2000/svg">
<circle cx="116" cy="76" r="4" fill="#0A8043"/>
<circle cx="130" cy="76" r="4" fill="#0A8043"/>
<circle cx="144" cy="76" r="4" fill="#0A8043"/>
<circle cx="158" cy="76" r="4" fill="#0A8043"/>
<circle cx="172" cy="76" r="4" fill="#0A8043"/>
<circle cx="186" cy="76" r="4" fill="#0A8043"/>
<circle cx="200" cy="76" r="4" fill="#0A8043"/>
<circle cx="214" cy="76" r="4" fill="#0A8043"/>
<circle cx="228" cy="76" r="4" fill="#0A8043"/>
<circle cx="116" cy="94" r="4" fill="#0A8043"/>
<circle cx="130" cy="94" r="4" fill="#0A8043"/>
<circle cx="144" cy="94" r="4" fill="#0A8043"/>
<circle cx="158" cy="94" r="4" fill="#0A8043"/>
<circle cx="172" cy="94" r="4" fill="#0A8043"/>
<circle cx="186" cy="94" r="4" fill="#0A8043"/>
<circle cx="200" cy="94" r="4" fill="#0A8043"/>
<circle cx="214" cy="94" r="4" fill="#0A8043"/>
<circle cx="228" cy="94" r="4" fill="#0A8043"/>
<circle cx="116" cy="112" r="4" fill="#0A8043"/>
<circle cx="130" cy="112" r="4" fill="#0A8043"/>
<circle cx="144" cy="112" r="4" fill="#0A8043"/>
<circle cx="158" cy="112" r="4" fill="#0A8043"/>
<circle cx="172" cy="112" r="4" fill="#0A8043"/>
<circle cx="186" cy="112" r="4" fill="#0A8043"/>
<circle cx="200" cy="112" r="4" fill="#0A8043"/>
<circle cx="214" cy="112" r="4" fill="#0A8043"/>
<circle cx="228" cy="112" r="4" fill="#0A8043"/>
<circle cx="116" cy="130" r="4" fill="#0A8043"/>
<circle cx="130" cy="130" r="4" fill="#0A8043"/>
<circle cx="144" cy="130" r="4" fill="#0A8043"/>
<circle cx="158" cy="130" r="4" fill="#0A8043"/>
<circle cx="172" cy="130" r="4" fill="#0A8043"/>
<circle cx="186" cy="130" r="4" fill="#0A8043"/>
<circle cx="200" cy="130" r="4" fill="#0A8043"/>
<circle cx="214" cy="130" r="4" fill="#0A8043"/>
<circle cx="228" cy="130" r="4" fill="#0A8043"/>
<circle cx="116" cy="148" r="4" fill="#0A8043"/>
<circle cx="130" cy="148" r="4" fill="#0A8043"/>
<circle cx="144" cy="148" r="4" fill="#0A8043"/>
<circle cx="158" cy="148" r="4" fill="#0A8043"/>
<circle cx="172" cy="148" r="4" fill="#0A8043"/>
<circle cx="186" cy="148" r="4" fill="#0A8043"/>
<circle cx="200" cy="148" r="4" fill="#0A8043"/>
<circle cx="214" cy="148" r="4" fill="#0A8043"/>
<circle cx="228" cy="148" r="4" fill="#0A8043"/>
<circle cx="116" cy="166" r="4" fill="#0A8043"/>
<circle cx="130" cy="166" r="4" fill="#0A8043"/>
<circle cx="144" cy="166" r="4" fill="#0A8043"/>
<circle cx="158" cy="166" r="4" fill="#0A8043"/>
<circle cx="172" cy="166" r="4" fill="#0A8043"/>
<circle cx="186" cy="166" r="4" fill="#0A8043"/>
<circle cx="200" cy="166" r="4" fill="#0A8043"/>
<circle cx="214" cy="166" r="4" fill="#0A8043"/>
<circle cx="228" cy="166" r="4" fill="#0A8043"/>
<circle cx="116" cy="184" r="4" fill="#0A8043"/>
<circle cx="130" cy="184" r="4" fill="#0A8043"/>
<circle cx="144" cy="184" r="4" fill="#0A8043"/>
<circle cx="158" cy="184" r="4" fill="#0A8043"/>
<circle cx="172" cy="184" r="4" fill="#0A8043"/>
<circle cx="186" cy="184" r="4" fill="#0A8043"/>
<circle cx="200" cy="184" r="4" fill="#0A8043"/>
<circle cx="214" cy="184" r="4" fill="#0A8043"/>
<circle cx="228" cy="184" r="4" fill="#0A8043"/>
<circle cx="116" cy="202" r="4" fill="#0A8043"/>
<circle cx="130" cy="202" r="4" fill="#0A8043"/>
<circle cx="144" cy="202" r="4" fill="#0A8043"/>
<circle cx="158" cy="202" r="4" fill="#0A8043"/>
<circle cx="172" cy="202" r="4" fill="#0A8043"/>
<circle cx="186" cy="202" r="4" fill="#0A8043"/>
<circle cx="200" cy="202" r="4" fill="#0A8043"/>
<circle cx="214" cy="202" r="4" fill="#0A8043"/>
<circle cx="228" cy="202" r="4" fill="#0A8043"/>
<circle cx="116" cy="220" r="4" fill="#0A8043"/>
<circle cx="130" cy="220" r="4" fill="#0A8043"/>
<circle cx="144" cy="220" r="4" fill="#0A8043"/>
<circle cx="158" cy="220" r="4" fill="#0A8043"/>
<circle cx="172" cy="220" r="4" fill="#0A8043"/>
<circle cx="186" cy="220" r="4" fill="#0A8043"/>
<circle cx="200" cy="220" r="4" fill="#0A8043"/>
<circle cx="214" cy="220" r="4" fill="#0A8043"/>
<circle cx="228" cy="220" r="4" fill="#0A8043"/>
<circle cx="116" cy="238" r="4" fill="#0A8043"/>
<circle cx="130" cy="238" r="4" fill="#0A8043"/>
<circle cx="144" cy="238" r="4" fill="#0A8043"/>
<circle cx="158" cy="238" r="4" fill="#0A8043"/>
<circle cx="172" cy="238" r="4" fill="#0A8043"/>
<circle cx="186" cy="238" r="4" fill="#0A8043"/>
<circle cx="200" cy="238" r="4" fill="#0A8043"/>
<circle cx="214" cy="238" r="4" fill="#0A8043"/>
<circle cx="228" cy="238" r="4" fill="#0A8043"/>
<circle cx="116" cy="256" r="4" fill="#0A8043"/>
<circle cx="130" cy="256" r="4" fill="#0A8043"/>
<circle cx="144" cy="256" r="4" fill="#0A8043"/>
<circle cx="158" cy="256" r="4" fill="#0A8043"/>
<circle cx="172" cy="256" r="4" fill="#0A8043"/>
<circle cx="186" cy="256" r="4" fill="#0A8043"/>
<circle cx="200" cy="256" r="4" fill="#0A8043"/>
<circle cx="214" cy="256" r="4" fill="#0A8043"/>
<circle cx="228" cy="256" r="4" fill="#0A8043"/>
<circle cx="116" cy="274" r="4" fill="#0A8043"/>
<circle cx="130" cy="274" r="4" fill="#0A8043"/>
<circle cx="144" cy="274" r="4" fill="#0A8043"/>
<circle cx="158" cy="274" r="4" fill="#0A8043"/>
<circle cx="172" cy="274" r="4" fill="#0A8043"/>
<circle cx="186" cy="274" r="4" fill="#0A8043"/>
<circle cx="200" cy="274" r="4" fill="#0A8043"/>
<circle cx="214" cy="274" r="4" fill="#0A8043"/>
<circle cx="228" cy="274" r="4" fill="#0A8043"/>
<circle cx="116" cy="292" r="4" fill="#0A8043"/>
<circle cx="130" cy="292" r="4" fill="#0A8043"/>
<circle cx="144" cy="292" r="4" fill="#0A8043"/>
<circle cx="158" cy="292" r="4" fill="#0A8043"/>
<circle cx="172" cy="292" r="4" fill="#0A8043"/>
<circle cx="186" cy="292" r="4" fill="#0A8043"/>
<circle cx="200" cy="292" r="4" fill="#0A8043"/>
<circle cx="214" cy="292" r="4" fill="#0A8043"/>
<circle cx="228" cy="292" r="4" fill="#0A8043"/>
<circle cx="4" cy="76" r="4" fill="#0A8043"/>
<circle cx="18" cy="76" r="4" fill="#0A8043"/>
<circle cx="32" cy="76" r="4" fill="#0A8043"/>
<circle cx="46" cy="76" r="4" fill="#0A8043"/>
<circle cx="60" cy="76" r="4" fill="#0A8043"/>
<circle cx="74" cy="76" r="4" fill="#0A8043"/>
<circle cx="88" cy="76" r="4" fill="#0A8043"/>
<circle cx="102" cy="76" r="4" fill="#0A8043"/>
<circle cx="116" cy="76" r="4" fill="#0A8043"/>
<circle cx="4" cy="94" r="4" fill="#0A8043"/>
<circle cx="18" cy="94" r="4" fill="#0A8043"/>
<circle cx="32" cy="94" r="4" fill="#0A8043"/>
<circle cx="46" cy="94" r="4" fill="#0A8043"/>
<circle cx="60" cy="94" r="4" fill="#0A8043"/>
<circle cx="74" cy="94" r="4" fill="#0A8043"/>
<circle cx="88" cy="94" r="4" fill="#0A8043"/>
<circle cx="102" cy="94" r="4" fill="#0A8043"/>
<circle cx="116" cy="94" r="4" fill="#0A8043"/>
<circle cx="4" cy="112" r="4" fill="#0A8043"/>
<circle cx="18" cy="112" r="4" fill="#0A8043"/>
<circle cx="32" cy="112" r="4" fill="#0A8043"/>
<circle cx="46" cy="112" r="4" fill="#0A8043"/>
<circle cx="60" cy="112" r="4" fill="#0A8043"/>
<circle cx="74" cy="112" r="4" fill="#0A8043"/>
<circle cx="88" cy="112" r="4" fill="#0A8043"/>
<circle cx="102" cy="112" r="4" fill="#0A8043"/>
<circle cx="116" cy="112" r="4" fill="#0A8043"/>
<circle cx="4" cy="130" r="4" fill="#0A8043"/>
<circle cx="18" cy="130" r="4" fill="#0A8043"/>
<circle cx="32" cy="130" r="4" fill="#0A8043"/>
<circle cx="46" cy="130" r="4" fill="#0A8043"/>
<circle cx="60" cy="130" r="4" fill="#0A8043"/>
<circle cx="74" cy="130" r="4" fill="#0A8043"/>
<circle cx="88" cy="130" r="4" fill="#0A8043"/>
<circle cx="102" cy="130" r="4" fill="#0A8043"/>
<circle cx="116" cy="130" r="4" fill="#0A8043"/>
<circle cx="4" cy="148" r="4" fill="#0A8043"/>
<circle cx="18" cy="148" r="4" fill="#0A8043"/>
<circle cx="32" cy="148" r="4" fill="#0A8043"/>
<circle cx="46" cy="148" r="4" fill="#0A8043"/>
<circle cx="60" cy="148" r="4" fill="#0A8043"/>
<circle cx="74" cy="148" r="4" fill="#0A8043"/>
<circle cx="88" cy="148" r="4" fill="#0A8043"/>
<circle cx="102" cy="148" r="4" fill="#0A8043"/>
<circle cx="116" cy="148" r="4" fill="#0A8043"/>
<circle cx="4" cy="166" r="4" fill="#0A8043"/>
<circle cx="18" cy="166" r="4" fill="#0A8043"/>
<circle cx="32" cy="166" r="4" fill="#0A8043"/>
<circle cx="46" cy="166" r="4" fill="#0A8043"/>
<circle cx="60" cy="166" r="4" fill="#0A8043"/>
<circle cx="74" cy="166" r="4" fill="#0A8043"/>
<circle cx="88" cy="166" r="4" fill="#0A8043"/>
<circle cx="102" cy="166" r="4" fill="#0A8043"/>
<circle cx="116" cy="166" r="4" fill="#0A8043"/>
<circle cx="4" cy="184" r="4" fill="#0A8043"/>
<circle cx="18" cy="184" r="4" fill="#0A8043"/>
<circle cx="32" cy="184" r="4" fill="#0A8043"/>
<circle cx="46" cy="184" r="4" fill="#0A8043"/>
<circle cx="60" cy="184" r="4" fill="#0A8043"/>
<circle cx="74" cy="184" r="4" fill="#0A8043"/>
<circle cx="88" cy="184" r="4" fill="#0A8043"/>
<circle cx="102" cy="184" r="4" fill="#0A8043"/>
<circle cx="116" cy="184" r="4" fill="#0A8043"/>
<circle cx="4" cy="202" r="4" fill="#0A8043"/>
<circle cx="18" cy="202" r="4" fill="#0A8043"/>
<circle cx="32" cy="202" r="4" fill="#0A8043"/>
<circle cx="46" cy="202" r="4" fill="#0A8043"/>
<circle cx="60" cy="202" r="4" fill="#0A8043"/>
<circle cx="74" cy="202" r="4" fill="#0A8043"/>
<circle cx="88" cy="202" r="4" fill="#0A8043"/>
<circle cx="102" cy="202" r="4" fill="#0A8043"/>
<circle cx="116" cy="202" r="4" fill="#0A8043"/>
<circle cx="4" cy="220" r="4" fill="#0A8043"/>
<circle cx="18" cy="220" r="4" fill="#0A8043"/>
<circle cx="32" cy="220" r="4" fill="#0A8043"/>
<circle cx="46" cy="220" r="4" fill="#0A8043"/>
<circle cx="60" cy="220" r="4" fill="#0A8043"/>
<circle cx="74" cy="220" r="4" fill="#0A8043"/>
<circle cx="88" cy="220" r="4" fill="#0A8043"/>
<circle cx="102" cy="220" r="4" fill="#0A8043"/>
<circle cx="116" cy="220" r="4" fill="#0A8043"/>
<circle cx="4" cy="238" r="4" fill="#0A8043"/>
<circle cx="18" cy="238" r="4" fill="#0A8043"/>
<circle cx="32" cy="238" r="4" fill="#0A8043"/>
<circle cx="46" cy="238" r="4" fill="#0A8043"/>
<circle cx="60" cy="238" r="4" fill="#0A8043"/>
<circle cx="74" cy="238" r="4" fill="#0A8043"/>
<circle cx="88" cy="238" r="4" fill="#0A8043"/>
<circle cx="102" cy="238" r="4" fill="#0A8043"/>
<circle cx="116" cy="238" r="4" fill="#0A8043"/>
<circle cx="4" cy="256" r="4" fill="#0A8043"/>
<circle cx="18" cy="256" r="4" fill="#0A8043"/>
<circle cx="32" cy="256" r="4" fill="#0A8043"/>
<circle cx="46" cy="256" r="4" fill="#0A8043"/>
<circle cx="60" cy="256" r="4" fill="#0A8043"/>
<circle cx="74" cy="256" r="4" fill="#0A8043"/>
<circle cx="88" cy="256" r="4" fill="#0A8043"/>
<circle cx="102" cy="256" r="4" fill="#0A8043"/>
<circle cx="116" cy="256" r="4" fill="#0A8043"/>
<circle cx="4" cy="274" r="4" fill="#0A8043"/>
<circle cx="18" cy="274" r="4" fill="#0A8043"/>
<circle cx="32" cy="274" r="4" fill="#0A8043"/>
<circle cx="46" cy="274" r="4" fill="#0A8043"/>
<circle cx="60" cy="274" r="4" fill="#0A8043"/>
<circle cx="74" cy="274" r="4" fill="#0A8043"/>
<circle cx="88" cy="274" r="4" fill="#0A8043"/>
<circle cx="102" cy="274" r="4" fill="#0A8043"/>
<circle cx="116" cy="274" r="4" fill="#0A8043"/>
<circle cx="4" cy="292" r="4" fill="#0A8043"/>
<circle cx="18" cy="292" r="4" fill="#0A8043"/>
<circle cx="32" cy="292" r="4" fill="#0A8043"/>
<circle cx="46" cy="292" r="4" fill="#0A8043"/>
<circle cx="60" cy="292" r="4" fill="#0A8043"/>
<circle cx="74" cy="292" r="4" fill="#0A8043"/>
<circle cx="88" cy="292" r="4" fill="#0A8043"/>
<circle cx="102" cy="292" r="4" fill="#0A8043"/>
<circle cx="116" cy="292" r="4" fill="#0A8043"/>
<circle cx="116" cy="4" r="4" fill="#0A8043"/>
<circle cx="130" cy="4" r="4" fill="#0A8043"/>
<circle cx="144" cy="4" r="4" fill="#0A8043"/>
<circle cx="158" cy="4" r="4" fill="#0A8043"/>
<circle cx="172" cy="4" r="4" fill="#0A8043"/>
<circle cx="186" cy="4" r="4" fill="#0A8043"/>
<circle cx="200" cy="4" r="4" fill="#0A8043"/>
<circle cx="214" cy="4" r="4" fill="#0A8043"/>
<circle cx="228" cy="4" r="4" fill="#0A8043"/>
<circle cx="116" cy="22" r="4" fill="#0A8043"/>
<circle cx="130" cy="22" r="4" fill="#0A8043"/>
<circle cx="144" cy="22" r="4" fill="#0A8043"/>
<circle cx="158" cy="22" r="4" fill="#0A8043"/>
<circle cx="172" cy="22" r="4" fill="#0A8043"/>
<circle cx="186" cy="22" r="4" fill="#0A8043"/>
<circle cx="200" cy="22" r="4" fill="#0A8043"/>
<circle cx="214" cy="22" r="4" fill="#0A8043"/>
<circle cx="228" cy="22" r="4" fill="#0A8043"/>
<circle cx="116" cy="40" r="4" fill="#0A8043"/>
<circle cx="130" cy="40" r="4" fill="#0A8043"/>
<circle cx="144" cy="40" r="4" fill="#0A8043"/>
<circle cx="158" cy="40" r="4" fill="#0A8043"/>
<circle cx="172" cy="40" r="4" fill="#0A8043"/>
<circle cx="186" cy="40" r="4" fill="#0A8043"/>
<circle cx="200" cy="40" r="4" fill="#0A8043"/>
<circle cx="214" cy="40" r="4" fill="#0A8043"/>
<circle cx="228" cy="40" r="4" fill="#0A8043"/>
<circle cx="116" cy="58" r="4" fill="#0A8043"/>
<circle cx="130" cy="58" r="4" fill="#0A8043"/>
<circle cx="144" cy="58" r="4" fill="#0A8043"/>
<circle cx="158" cy="58" r="4" fill="#0A8043"/>
<circle cx="172" cy="58" r="4" fill="#0A8043"/>
<circle cx="186" cy="58" r="4" fill="#0A8043"/>
<circle cx="200" cy="58" r="4" fill="#0A8043"/>
<circle cx="214" cy="58" r="4" fill="#0A8043"/>
<circle cx="228" cy="58" r="4" fill="#0A8043"/>
<circle cx="116" cy="76" r="4" fill="#0A8043"/>
<circle cx="130" cy="76" r="4" fill="#0A8043"/>
<circle cx="144" cy="76" r="4" fill="#0A8043"/>
<circle cx="158" cy="76" r="4" fill="#0A8043"/>
<circle cx="172" cy="76" r="4" fill="#0A8043"/>
<circle cx="186" cy="76" r="4" fill="#0A8043"/>
<circle cx="200" cy="76" r="4" fill="#0A8043"/>
<circle cx="214" cy="76" r="4" fill="#0A8043"/>
<circle cx="228" cy="76" r="4" fill="#0A8043"/>
<circle cx="116" cy="94" r="4" fill="#0A8043"/>
<circle cx="130" cy="94" r="4" fill="#0A8043"/>
<circle cx="144" cy="94" r="4" fill="#0A8043"/>
<circle cx="158" cy="94" r="4" fill="#0A8043"/>
<circle cx="172" cy="94" r="4" fill="#0A8043"/>
<circle cx="186" cy="94" r="4" fill="#0A8043"/>
<circle cx="200" cy="94" r="4" fill="#0A8043"/>
<circle cx="214" cy="94" r="4" fill="#0A8043"/>
<circle cx="228" cy="94" r="4" fill="#0A8043"/>
<circle cx="116" cy="112" r="4" fill="#0A8043"/>
<circle cx="130" cy="112" r="4" fill="#0A8043"/>
<circle cx="144" cy="112" r="4" fill="#0A8043"/>
<circle cx="158" cy="112" r="4" fill="#0A8043"/>
<circle cx="172" cy="112" r="4" fill="#0A8043"/>
<circle cx="186" cy="112" r="4" fill="#0A8043"/>
<circle cx="200" cy="112" r="4" fill="#0A8043"/>
<circle cx="214" cy="112" r="4" fill="#0A8043"/>
<circle cx="228" cy="112" r="4" fill="#0A8043"/>
<circle cx="116" cy="130" r="4" fill="#0A8043"/>
<circle cx="130" cy="130" r="4" fill="#0A8043"/>
<circle cx="144" cy="130" r="4" fill="#0A8043"/>
<circle cx="158" cy="130" r="4" fill="#0A8043"/>
<circle cx="172" cy="130" r="4" fill="#0A8043"/>
<circle cx="186" cy="130" r="4" fill="#0A8043"/>
<circle cx="200" cy="130" r="4" fill="#0A8043"/>
<circle cx="214" cy="130" r="4" fill="#0A8043"/>
<circle cx="228" cy="130" r="4" fill="#0A8043"/>
<circle cx="116" cy="148" r="4" fill="#0A8043"/>
<circle cx="130" cy="148" r="4" fill="#0A8043"/>
<circle cx="144" cy="148" r="4" fill="#0A8043"/>
<circle cx="158" cy="148" r="4" fill="#0A8043"/>
<circle cx="172" cy="148" r="4" fill="#0A8043"/>
<circle cx="186" cy="148" r="4" fill="#0A8043"/>
<circle cx="200" cy="148" r="4" fill="#0A8043"/>
<circle cx="214" cy="148" r="4" fill="#0A8043"/>
<circle cx="228" cy="148" r="4" fill="#0A8043"/>
<circle cx="116" cy="166" r="4" fill="#0A8043"/>
<circle cx="130" cy="166" r="4" fill="#0A8043"/>
<circle cx="144" cy="166" r="4" fill="#0A8043"/>
<circle cx="158" cy="166" r="4" fill="#0A8043"/>
<circle cx="172" cy="166" r="4" fill="#0A8043"/>
<circle cx="186" cy="166" r="4" fill="#0A8043"/>
<circle cx="200" cy="166" r="4" fill="#0A8043"/>
<circle cx="214" cy="166" r="4" fill="#0A8043"/>
<circle cx="228" cy="166" r="4" fill="#0A8043"/>
<circle cx="116" cy="184" r="4" fill="#0A8043"/>
<circle cx="130" cy="184" r="4" fill="#0A8043"/>
<circle cx="144" cy="184" r="4" fill="#0A8043"/>
<circle cx="158" cy="184" r="4" fill="#0A8043"/>
<circle cx="172" cy="184" r="4" fill="#0A8043"/>
<circle cx="186" cy="184" r="4" fill="#0A8043"/>
<circle cx="200" cy="184" r="4" fill="#0A8043"/>
<circle cx="214" cy="184" r="4" fill="#0A8043"/>
<circle cx="228" cy="184" r="4" fill="#0A8043"/>
<circle cx="116" cy="202" r="4" fill="#0A8043"/>
<circle cx="130" cy="202" r="4" fill="#0A8043"/>
<circle cx="144" cy="202" r="4" fill="#0A8043"/>
<circle cx="158" cy="202" r="4" fill="#0A8043"/>
<circle cx="172" cy="202" r="4" fill="#0A8043"/>
<circle cx="186" cy="202" r="4" fill="#0A8043"/>
<circle cx="200" cy="202" r="4" fill="#0A8043"/>
<circle cx="214" cy="202" r="4" fill="#0A8043"/>
<circle cx="228" cy="202" r="4" fill="#0A8043"/>
<circle cx="116" cy="220" r="4" fill="#0A8043"/>
<circle cx="130" cy="220" r="4" fill="#0A8043"/>
<circle cx="144" cy="220" r="4" fill="#0A8043"/>
<circle cx="158" cy="220" r="4" fill="#0A8043"/>
<circle cx="172" cy="220" r="4" fill="#0A8043"/>
<circle cx="186" cy="220" r="4" fill="#0A8043"/>
<circle cx="200" cy="220" r="4" fill="#0A8043"/>
<circle cx="214" cy="220" r="4" fill="#0A8043"/>
<circle cx="228" cy="220" r="4" fill="#0A8043"/>
<circle cx="4" cy="4" r="4" fill="#0A8043"/>
<circle cx="18" cy="4" r="4" fill="#0A8043"/>
<circle cx="32" cy="4" r="4" fill="#0A8043"/>
<circle cx="46" cy="4" r="4" fill="#0A8043"/>
<circle cx="60" cy="4" r="4" fill="#0A8043"/>
<circle cx="74" cy="4" r="4" fill="#0A8043"/>
<circle cx="88" cy="4" r="4" fill="#0A8043"/>
<circle cx="102" cy="4" r="4" fill="#0A8043"/>
<circle cx="116" cy="4" r="4" fill="#0A8043"/>
<circle cx="4" cy="22" r="4" fill="#0A8043"/>
<circle cx="18" cy="22" r="4" fill="#0A8043"/>
<circle cx="32" cy="22" r="4" fill="#0A8043"/>
<circle cx="46" cy="22" r="4" fill="#0A8043"/>
<circle cx="60" cy="22" r="4" fill="#0A8043"/>
<circle cx="74" cy="22" r="4" fill="#0A8043"/>
<circle cx="88" cy="22" r="4" fill="#0A8043"/>
<circle cx="102" cy="22" r="4" fill="#0A8043"/>
<circle cx="116" cy="22" r="4" fill="#0A8043"/>
<circle cx="4" cy="40" r="4" fill="#0A8043"/>
<circle cx="18" cy="40" r="4" fill="#0A8043"/>
<circle cx="32" cy="40" r="4" fill="#0A8043"/>
<circle cx="46" cy="40" r="4" fill="#0A8043"/>
<circle cx="60" cy="40" r="4" fill="#0A8043"/>
<circle cx="74" cy="40" r="4" fill="#0A8043"/>
<circle cx="88" cy="40" r="4" fill="#0A8043"/>
<circle cx="102" cy="40" r="4" fill="#0A8043"/>
<circle cx="116" cy="40" r="4" fill="#0A8043"/>
<circle cx="4" cy="58" r="4" fill="#0A8043"/>
<circle cx="18" cy="58" r="4" fill="#0A8043"/>
<circle cx="32" cy="58" r="4" fill="#0A8043"/>
<circle cx="46" cy="58" r="4" fill="#0A8043"/>
<circle cx="60" cy="58" r="4" fill="#0A8043"/>
<circle cx="74" cy="58" r="4" fill="#0A8043"/>
<circle cx="88" cy="58" r="4" fill="#0A8043"/>
<circle cx="102" cy="58" r="4" fill="#0A8043"/>
<circle cx="116" cy="58" r="4" fill="#0A8043"/>
<circle cx="4" cy="76" r="4" fill="#0A8043"/>
<circle cx="18" cy="76" r="4" fill="#0A8043"/>
<circle cx="32" cy="76" r="4" fill="#0A8043"/>
<circle cx="46" cy="76" r="4" fill="#0A8043"/>
<circle cx="60" cy="76" r="4" fill="#0A8043"/>
<circle cx="74" cy="76" r="4" fill="#0A8043"/>
<circle cx="88" cy="76" r="4" fill="#0A8043"/>
<circle cx="102" cy="76" r="4" fill="#0A8043"/>
<circle cx="116" cy="76" r="4" fill="#0A8043"/>
<circle cx="4" cy="94" r="4" fill="#0A8043"/>
<circle cx="18" cy="94" r="4" fill="#0A8043"/>
<circle cx="32" cy="94" r="4" fill="#0A8043"/>
<circle cx="46" cy="94" r="4" fill="#0A8043"/>
<circle cx="60" cy="94" r="4" fill="#0A8043"/>
<circle cx="74" cy="94" r="4" fill="#0A8043"/>
<circle cx="88" cy="94" r="4" fill="#0A8043"/>
<circle cx="102" cy="94" r="4" fill="#0A8043"/>
<circle cx="116" cy="94" r="4" fill="#0A8043"/>
<circle cx="4" cy="112" r="4" fill="#0A8043"/>
<circle cx="18" cy="112" r="4" fill="#0A8043"/>
<circle cx="32" cy="112" r="4" fill="#0A8043"/>
<circle cx="46" cy="112" r="4" fill="#0A8043"/>
<circle cx="60" cy="112" r="4" fill="#0A8043"/>
<circle cx="74" cy="112" r="4" fill="#0A8043"/>
<circle cx="88" cy="112" r="4" fill="#0A8043"/>
<circle cx="102" cy="112" r="4" fill="#0A8043"/>
<circle cx="116" cy="112" r="4" fill="#0A8043"/>
<circle cx="4" cy="130" r="4" fill="#0A8043"/>
<circle cx="18" cy="130" r="4" fill="#0A8043"/>
<circle cx="32" cy="130" r="4" fill="#0A8043"/>
<circle cx="46" cy="130" r="4" fill="#0A8043"/>
<circle cx="60" cy="130" r="4" fill="#0A8043"/>
<circle cx="74" cy="130" r="4" fill="#0A8043"/>
<circle cx="88" cy="130" r="4" fill="#0A8043"/>
<circle cx="102" cy="130" r="4" fill="#0A8043"/>
<circle cx="116" cy="130" r="4" fill="#0A8043"/>
<circle cx="4" cy="148" r="4" fill="#0A8043"/>
<circle cx="18" cy="148" r="4" fill="#0A8043"/>
<circle cx="32" cy="148" r="4" fill="#0A8043"/>
<circle cx="46" cy="148" r="4" fill="#0A8043"/>
<circle cx="60" cy="148" r="4" fill="#0A8043"/>
<circle cx="74" cy="148" r="4" fill="#0A8043"/>
<circle cx="88" cy="148" r="4" fill="#0A8043"/>
<circle cx="102" cy="148" r="4" fill="#0A8043"/>
<circle cx="116" cy="148" r="4" fill="#0A8043"/>
<circle cx="4" cy="166" r="4" fill="#0A8043"/>
<circle cx="18" cy="166" r="4" fill="#0A8043"/>
<circle cx="32" cy="166" r="4" fill="#0A8043"/>
<circle cx="46" cy="166" r="4" fill="#0A8043"/>
<circle cx="60" cy="166" r="4" fill="#0A8043"/>
<circle cx="74" cy="166" r="4" fill="#0A8043"/>
<circle cx="88" cy="166" r="4" fill="#0A8043"/>
<circle cx="102" cy="166" r="4" fill="#0A8043"/>
<circle cx="116" cy="166" r="4" fill="#0A8043"/>
<circle cx="4" cy="184" r="4" fill="#0A8043"/>
<circle cx="18" cy="184" r="4" fill="#0A8043"/>
<circle cx="32" cy="184" r="4" fill="#0A8043"/>
<circle cx="46" cy="184" r="4" fill="#0A8043"/>
<circle cx="60" cy="184" r="4" fill="#0A8043"/>
<circle cx="74" cy="184" r="4" fill="#0A8043"/>
<circle cx="88" cy="184" r="4" fill="#0A8043"/>
<circle cx="102" cy="184" r="4" fill="#0A8043"/>
<circle cx="116" cy="184" r="4" fill="#0A8043"/>
<circle cx="4" cy="202" r="4" fill="#0A8043"/>
<circle cx="18" cy="202" r="4" fill="#0A8043"/>
<circle cx="32" cy="202" r="4" fill="#0A8043"/>
<circle cx="46" cy="202" r="4" fill="#0A8043"/>
<circle cx="60" cy="202" r="4" fill="#0A8043"/>
<circle cx="74" cy="202" r="4" fill="#0A8043"/>
<circle cx="88" cy="202" r="4" fill="#0A8043"/>
<circle cx="102" cy="202" r="4" fill="#0A8043"/>
<circle cx="116" cy="202" r="4" fill="#0A8043"/>
<circle cx="4" cy="220" r="4" fill="#0A8043"/>
<circle cx="18" cy="220" r="4" fill="#0A8043"/>
<circle cx="32" cy="220" r="4" fill="#0A8043"/>
<circle cx="46" cy="220" r="4" fill="#0A8043"/>
<circle cx="60" cy="220" r="4" fill="#0A8043"/>
<circle cx="74" cy="220" r="4" fill="#0A8043"/>
<circle cx="88" cy="220" r="4" fill="#0A8043"/>
<circle cx="102" cy="220" r="4" fill="#0A8043"/>
<circle cx="116" cy="220" r="4" fill="#0A8043"/>
</svg>
