<svg width="114" height="296" viewBox="0 0 114 296" fill="none" xmlns="http://www.w3.org/2000/svg">
<g opacity="0.3">
<circle cx="-2" cy="76" r="4" fill="#004AD7"/>
<circle cx="12" cy="76" r="4" fill="#004AD7"/>
<circle cx="26" cy="76" r="4" fill="#004AD7"/>
<circle cx="40" cy="76" r="4" fill="#004AD7"/>
<circle cx="54" cy="76" r="4" fill="#004AD7"/>
<circle cx="68" cy="76" r="4" fill="#004AD7"/>
<circle cx="82" cy="76" r="4" fill="#004AD7"/>
<circle cx="96" cy="76" r="4" fill="#004AD7"/>
<circle cx="110" cy="76" r="4" fill="#004AD7"/>
<circle cx="-2" cy="94" r="4" fill="#004AD7"/>
<circle cx="12" cy="94" r="4" fill="#004AD7"/>
<circle cx="26" cy="94" r="4" fill="#004AD7"/>
<circle cx="40" cy="94" r="4" fill="#004AD7"/>
<circle cx="54" cy="94" r="4" fill="#004AD7"/>
<circle cx="68" cy="94" r="4" fill="#004AD7"/>
<circle cx="82" cy="94" r="4" fill="#004AD7"/>
<circle cx="96" cy="94" r="4" fill="#004AD7"/>
<circle cx="110" cy="94" r="4" fill="#004AD7"/>
<circle cx="-2" cy="112" r="4" fill="#004AD7"/>
<circle cx="12" cy="112" r="4" fill="#004AD7"/>
<circle cx="26" cy="112" r="4" fill="#004AD7"/>
<circle cx="40" cy="112" r="4" fill="#004AD7"/>
<circle cx="54" cy="112" r="4" fill="#004AD7"/>
<circle cx="68" cy="112" r="4" fill="#004AD7"/>
<circle cx="82" cy="112" r="4" fill="#004AD7"/>
<circle cx="96" cy="112" r="4" fill="#004AD7"/>
<circle cx="110" cy="112" r="4" fill="#004AD7"/>
<circle cx="-2" cy="130" r="4" fill="#004AD7"/>
<circle cx="12" cy="130" r="4" fill="#004AD7"/>
<circle cx="26" cy="130" r="4" fill="#004AD7"/>
<circle cx="40" cy="130" r="4" fill="#004AD7"/>
<circle cx="54" cy="130" r="4" fill="#004AD7"/>
<circle cx="68" cy="130" r="4" fill="#004AD7"/>
<circle cx="82" cy="130" r="4" fill="#004AD7"/>
<circle cx="96" cy="130" r="4" fill="#004AD7"/>
<circle cx="110" cy="130" r="4" fill="#004AD7"/>
<circle cx="-2" cy="148" r="4" fill="#004AD7"/>
<circle cx="12" cy="148" r="4" fill="#004AD7"/>
<circle cx="26" cy="148" r="4" fill="#004AD7"/>
<circle cx="40" cy="148" r="4" fill="#004AD7"/>
<circle cx="54" cy="148" r="4" fill="#004AD7"/>
<circle cx="68" cy="148" r="4" fill="#004AD7"/>
<circle cx="82" cy="148" r="4" fill="#004AD7"/>
<circle cx="96" cy="148" r="4" fill="#004AD7"/>
<circle cx="110" cy="148" r="4" fill="#004AD7"/>
<circle cx="-2" cy="166" r="4" fill="#004AD7"/>
<circle cx="12" cy="166" r="4" fill="#004AD7"/>
<circle cx="26" cy="166" r="4" fill="#004AD7"/>
<circle cx="40" cy="166" r="4" fill="#004AD7"/>
<circle cx="54" cy="166" r="4" fill="#004AD7"/>
<circle cx="68" cy="166" r="4" fill="#004AD7"/>
<circle cx="82" cy="166" r="4" fill="#004AD7"/>
<circle cx="96" cy="166" r="4" fill="#004AD7"/>
<circle cx="110" cy="166" r="4" fill="#004AD7"/>
<circle cx="-2" cy="184" r="4" fill="#004AD7"/>
<circle cx="12" cy="184" r="4" fill="#004AD7"/>
<circle cx="26" cy="184" r="4" fill="#004AD7"/>
<circle cx="40" cy="184" r="4" fill="#004AD7"/>
<circle cx="54" cy="184" r="4" fill="#004AD7"/>
<circle cx="68" cy="184" r="4" fill="#004AD7"/>
<circle cx="82" cy="184" r="4" fill="#004AD7"/>
<circle cx="96" cy="184" r="4" fill="#004AD7"/>
<circle cx="110" cy="184" r="4" fill="#004AD7"/>
<circle cx="-2" cy="202" r="4" fill="#004AD7"/>
<circle cx="12" cy="202" r="4" fill="#004AD7"/>
<circle cx="26" cy="202" r="4" fill="#004AD7"/>
<circle cx="40" cy="202" r="4" fill="#004AD7"/>
<circle cx="54" cy="202" r="4" fill="#004AD7"/>
<circle cx="68" cy="202" r="4" fill="#004AD7"/>
<circle cx="82" cy="202" r="4" fill="#004AD7"/>
<circle cx="96" cy="202" r="4" fill="#004AD7"/>
<circle cx="110" cy="202" r="4" fill="#004AD7"/>
<circle cx="-2" cy="220" r="4" fill="#004AD7"/>
<circle cx="12" cy="220" r="4" fill="#004AD7"/>
<circle cx="26" cy="220" r="4" fill="#004AD7"/>
<circle cx="40" cy="220" r="4" fill="#004AD7"/>
<circle cx="54" cy="220" r="4" fill="#004AD7"/>
<circle cx="68" cy="220" r="4" fill="#004AD7"/>
<circle cx="82" cy="220" r="4" fill="#004AD7"/>
<circle cx="96" cy="220" r="4" fill="#004AD7"/>
<circle cx="110" cy="220" r="4" fill="#004AD7"/>
<circle cx="-2" cy="238" r="4" fill="#004AD7"/>
<circle cx="12" cy="238" r="4" fill="#004AD7"/>
<circle cx="26" cy="238" r="4" fill="#004AD7"/>
<circle cx="40" cy="238" r="4" fill="#004AD7"/>
<circle cx="54" cy="238" r="4" fill="#004AD7"/>
<circle cx="68" cy="238" r="4" fill="#004AD7"/>
<circle cx="82" cy="238" r="4" fill="#004AD7"/>
<circle cx="96" cy="238" r="4" fill="#004AD7"/>
<circle cx="110" cy="238" r="4" fill="#004AD7"/>
<circle cx="-2" cy="256" r="4" fill="#004AD7"/>
<circle cx="12" cy="256" r="4" fill="#004AD7"/>
<circle cx="26" cy="256" r="4" fill="#004AD7"/>
<circle cx="40" cy="256" r="4" fill="#004AD7"/>
<circle cx="54" cy="256" r="4" fill="#004AD7"/>
<circle cx="68" cy="256" r="4" fill="#004AD7"/>
<circle cx="82" cy="256" r="4" fill="#004AD7"/>
<circle cx="96" cy="256" r="4" fill="#004AD7"/>
<circle cx="110" cy="256" r="4" fill="#004AD7"/>
<circle cx="-2" cy="274" r="4" fill="#004AD7"/>
<circle cx="12" cy="274" r="4" fill="#004AD7"/>
<circle cx="26" cy="274" r="4" fill="#004AD7"/>
<circle cx="40" cy="274" r="4" fill="#004AD7"/>
<circle cx="54" cy="274" r="4" fill="#004AD7"/>
<circle cx="68" cy="274" r="4" fill="#004AD7"/>
<circle cx="82" cy="274" r="4" fill="#004AD7"/>
<circle cx="96" cy="274" r="4" fill="#004AD7"/>
<circle cx="110" cy="274" r="4" fill="#004AD7"/>
<circle cx="-2" cy="292" r="4" fill="#004AD7"/>
<circle cx="12" cy="292" r="4" fill="#004AD7"/>
<circle cx="26" cy="292" r="4" fill="#004AD7"/>
<circle cx="40" cy="292" r="4" fill="#004AD7"/>
<circle cx="54" cy="292" r="4" fill="#004AD7"/>
<circle cx="68" cy="292" r="4" fill="#004AD7"/>
<circle cx="82" cy="292" r="4" fill="#004AD7"/>
<circle cx="96" cy="292" r="4" fill="#004AD7"/>
<circle cx="110" cy="292" r="4" fill="#004AD7"/>
<circle cx="-2" cy="76" r="4" fill="#004AD7"/>
<circle cx="-2" cy="94" r="4" fill="#004AD7"/>
<circle cx="-2" cy="112" r="4" fill="#004AD7"/>
<circle cx="-2" cy="130" r="4" fill="#004AD7"/>
<circle cx="-2" cy="148" r="4" fill="#004AD7"/>
<circle cx="-2" cy="166" r="4" fill="#004AD7"/>
<circle cx="-2" cy="184" r="4" fill="#004AD7"/>
<circle cx="-2" cy="202" r="4" fill="#004AD7"/>
<circle cx="-2" cy="220" r="4" fill="#004AD7"/>
<circle cx="-2" cy="238" r="4" fill="#004AD7"/>
<circle cx="-2" cy="256" r="4" fill="#004AD7"/>
<circle cx="-2" cy="274" r="4" fill="#004AD7"/>
<circle cx="-2" cy="292" r="4" fill="#004AD7"/>
<circle cx="-2" cy="4" r="4" fill="#004AD7"/>
<circle cx="12" cy="4" r="4" fill="#004AD7"/>
<circle cx="26" cy="4" r="4" fill="#004AD7"/>
<circle cx="40" cy="4" r="4" fill="#004AD7"/>
<circle cx="54" cy="4" r="4" fill="#004AD7"/>
<circle cx="68" cy="4" r="4" fill="#004AD7"/>
<circle cx="82" cy="4" r="4" fill="#004AD7"/>
<circle cx="96" cy="4" r="4" fill="#004AD7"/>
<circle cx="110" cy="4" r="4" fill="#004AD7"/>
<circle cx="-2" cy="22" r="4" fill="#004AD7"/>
<circle cx="12" cy="22" r="4" fill="#004AD7"/>
<circle cx="26" cy="22" r="4" fill="#004AD7"/>
<circle cx="40" cy="22" r="4" fill="#004AD7"/>
<circle cx="54" cy="22" r="4" fill="#004AD7"/>
<circle cx="68" cy="22" r="4" fill="#004AD7"/>
<circle cx="82" cy="22" r="4" fill="#004AD7"/>
<circle cx="96" cy="22" r="4" fill="#004AD7"/>
<circle cx="110" cy="22" r="4" fill="#004AD7"/>
<circle cx="-2" cy="40" r="4" fill="#004AD7"/>
<circle cx="12" cy="40" r="4" fill="#004AD7"/>
<circle cx="26" cy="40" r="4" fill="#004AD7"/>
<circle cx="40" cy="40" r="4" fill="#004AD7"/>
<circle cx="54" cy="40" r="4" fill="#004AD7"/>
<circle cx="68" cy="40" r="4" fill="#004AD7"/>
<circle cx="82" cy="40" r="4" fill="#004AD7"/>
<circle cx="96" cy="40" r="4" fill="#004AD7"/>
<circle cx="110" cy="40" r="4" fill="#004AD7"/>
<circle cx="-2" cy="58" r="4" fill="#004AD7"/>
<circle cx="12" cy="58" r="4" fill="#004AD7"/>
<circle cx="26" cy="58" r="4" fill="#004AD7"/>
<circle cx="40" cy="58" r="4" fill="#004AD7"/>
<circle cx="54" cy="58" r="4" fill="#004AD7"/>
<circle cx="68" cy="58" r="4" fill="#004AD7"/>
<circle cx="82" cy="58" r="4" fill="#004AD7"/>
<circle cx="96" cy="58" r="4" fill="#004AD7"/>
<circle cx="110" cy="58" r="4" fill="#004AD7"/>
<circle cx="-2" cy="76" r="4" fill="#004AD7"/>
<circle cx="12" cy="76" r="4" fill="#004AD7"/>
<circle cx="26" cy="76" r="4" fill="#004AD7"/>
<circle cx="40" cy="76" r="4" fill="#004AD7"/>
<circle cx="54" cy="76" r="4" fill="#004AD7"/>
<circle cx="68" cy="76" r="4" fill="#004AD7"/>
<circle cx="82" cy="76" r="4" fill="#004AD7"/>
<circle cx="96" cy="76" r="4" fill="#004AD7"/>
<circle cx="110" cy="76" r="4" fill="#004AD7"/>
<circle cx="-2" cy="94" r="4" fill="#004AD7"/>
<circle cx="12" cy="94" r="4" fill="#004AD7"/>
<circle cx="26" cy="94" r="4" fill="#004AD7"/>
<circle cx="40" cy="94" r="4" fill="#004AD7"/>
<circle cx="54" cy="94" r="4" fill="#004AD7"/>
<circle cx="68" cy="94" r="4" fill="#004AD7"/>
<circle cx="82" cy="94" r="4" fill="#004AD7"/>
<circle cx="96" cy="94" r="4" fill="#004AD7"/>
<circle cx="110" cy="94" r="4" fill="#004AD7"/>
<circle cx="-2" cy="112" r="4" fill="#004AD7"/>
<circle cx="12" cy="112" r="4" fill="#004AD7"/>
<circle cx="26" cy="112" r="4" fill="#004AD7"/>
<circle cx="40" cy="112" r="4" fill="#004AD7"/>
<circle cx="54" cy="112" r="4" fill="#004AD7"/>
<circle cx="68" cy="112" r="4" fill="#004AD7"/>
<circle cx="82" cy="112" r="4" fill="#004AD7"/>
<circle cx="96" cy="112" r="4" fill="#004AD7"/>
<circle cx="110" cy="112" r="4" fill="#004AD7"/>
<circle cx="-2" cy="130" r="4" fill="#004AD7"/>
<circle cx="12" cy="130" r="4" fill="#004AD7"/>
<circle cx="26" cy="130" r="4" fill="#004AD7"/>
<circle cx="40" cy="130" r="4" fill="#004AD7"/>
<circle cx="54" cy="130" r="4" fill="#004AD7"/>
<circle cx="68" cy="130" r="4" fill="#004AD7"/>
<circle cx="82" cy="130" r="4" fill="#004AD7"/>
<circle cx="96" cy="130" r="4" fill="#004AD7"/>
<circle cx="110" cy="130" r="4" fill="#004AD7"/>
<circle cx="-2" cy="148" r="4" fill="#004AD7"/>
<circle cx="12" cy="148" r="4" fill="#004AD7"/>
<circle cx="26" cy="148" r="4" fill="#004AD7"/>
<circle cx="40" cy="148" r="4" fill="#004AD7"/>
<circle cx="54" cy="148" r="4" fill="#004AD7"/>
<circle cx="68" cy="148" r="4" fill="#004AD7"/>
<circle cx="82" cy="148" r="4" fill="#004AD7"/>
<circle cx="96" cy="148" r="4" fill="#004AD7"/>
<circle cx="110" cy="148" r="4" fill="#004AD7"/>
<circle cx="-2" cy="166" r="4" fill="#004AD7"/>
<circle cx="12" cy="166" r="4" fill="#004AD7"/>
<circle cx="26" cy="166" r="4" fill="#004AD7"/>
<circle cx="40" cy="166" r="4" fill="#004AD7"/>
<circle cx="54" cy="166" r="4" fill="#004AD7"/>
<circle cx="68" cy="166" r="4" fill="#004AD7"/>
<circle cx="82" cy="166" r="4" fill="#004AD7"/>
<circle cx="96" cy="166" r="4" fill="#004AD7"/>
<circle cx="110" cy="166" r="4" fill="#004AD7"/>
<circle cx="-2" cy="184" r="4" fill="#004AD7"/>
<circle cx="12" cy="184" r="4" fill="#004AD7"/>
<circle cx="26" cy="184" r="4" fill="#004AD7"/>
<circle cx="40" cy="184" r="4" fill="#004AD7"/>
<circle cx="54" cy="184" r="4" fill="#004AD7"/>
<circle cx="68" cy="184" r="4" fill="#004AD7"/>
<circle cx="82" cy="184" r="4" fill="#004AD7"/>
<circle cx="96" cy="184" r="4" fill="#004AD7"/>
<circle cx="110" cy="184" r="4" fill="#004AD7"/>
<circle cx="-2" cy="202" r="4" fill="#004AD7"/>
<circle cx="12" cy="202" r="4" fill="#004AD7"/>
<circle cx="26" cy="202" r="4" fill="#004AD7"/>
<circle cx="40" cy="202" r="4" fill="#004AD7"/>
<circle cx="54" cy="202" r="4" fill="#004AD7"/>
<circle cx="68" cy="202" r="4" fill="#004AD7"/>
<circle cx="82" cy="202" r="4" fill="#004AD7"/>
<circle cx="96" cy="202" r="4" fill="#004AD7"/>
<circle cx="110" cy="202" r="4" fill="#004AD7"/>
<circle cx="-2" cy="220" r="4" fill="#004AD7"/>
<circle cx="12" cy="220" r="4" fill="#004AD7"/>
<circle cx="26" cy="220" r="4" fill="#004AD7"/>
<circle cx="40" cy="220" r="4" fill="#004AD7"/>
<circle cx="54" cy="220" r="4" fill="#004AD7"/>
<circle cx="68" cy="220" r="4" fill="#004AD7"/>
<circle cx="82" cy="220" r="4" fill="#004AD7"/>
<circle cx="96" cy="220" r="4" fill="#004AD7"/>
<circle cx="110" cy="220" r="4" fill="#004AD7"/>
<circle cx="-2" cy="4" r="4" fill="#004AD7"/>
<circle cx="-2" cy="22" r="4" fill="#004AD7"/>
<circle cx="-2" cy="40" r="4" fill="#004AD7"/>
<circle cx="-2" cy="58" r="4" fill="#004AD7"/>
<circle cx="-2" cy="76" r="4" fill="#004AD7"/>
<circle cx="-2" cy="94" r="4" fill="#004AD7"/>
<circle cx="-2" cy="112" r="4" fill="#004AD7"/>
<circle cx="-2" cy="130" r="4" fill="#004AD7"/>
<circle cx="-2" cy="148" r="4" fill="#004AD7"/>
<circle cx="-2" cy="166" r="4" fill="#004AD7"/>
<circle cx="-2" cy="184" r="4" fill="#004AD7"/>
<circle cx="-2" cy="202" r="4" fill="#004AD7"/>
<circle cx="-2" cy="220" r="4" fill="#004AD7"/>
</g>
</svg>
