<svg width="120" height="224" viewBox="0 0 120 224" fill="none" xmlns="http://www.w3.org/2000/svg">
<circle cx="4" cy="4" r="4" fill="white"/>
<circle cx="18" cy="4" r="4" fill="white"/>
<circle cx="32" cy="4" r="4" fill="white"/>
<circle cx="46" cy="4" r="4" fill="white"/>
<circle cx="60" cy="4" r="4" fill="white"/>
<circle cx="74" cy="4" r="4" fill="white"/>
<circle cx="88" cy="4" r="4" fill="white"/>
<circle cx="102" cy="4" r="4" fill="white"/>
<circle cx="116" cy="4" r="4" fill="white"/>
<circle cx="4" cy="22" r="4" fill="white"/>
<circle cx="18" cy="22" r="4" fill="white"/>
<circle cx="32" cy="22" r="4" fill="white"/>
<circle cx="46" cy="22" r="4" fill="white"/>
<circle cx="60" cy="22" r="4" fill="white"/>
<circle cx="74" cy="22" r="4" fill="white"/>
<circle cx="88" cy="22" r="4" fill="white"/>
<circle cx="102" cy="22" r="4" fill="white"/>
<circle cx="116" cy="22" r="4" fill="white"/>
<circle cx="4" cy="40" r="4" fill="white"/>
<circle cx="18" cy="40" r="4" fill="white"/>
<circle cx="32" cy="40" r="4" fill="white"/>
<circle cx="46" cy="40" r="4" fill="white"/>
<circle cx="60" cy="40" r="4" fill="white"/>
<circle cx="74" cy="40" r="4" fill="white"/>
<circle cx="88" cy="40" r="4" fill="white"/>
<circle cx="102" cy="40" r="4" fill="white"/>
<circle cx="116" cy="40" r="4" fill="white"/>
<circle cx="4" cy="58" r="4" fill="white"/>
<circle cx="18" cy="58" r="4" fill="white"/>
<circle cx="32" cy="58" r="4" fill="white"/>
<circle cx="46" cy="58" r="4" fill="white"/>
<circle cx="60" cy="58" r="4" fill="white"/>
<circle cx="74" cy="58" r="4" fill="white"/>
<circle cx="88" cy="58" r="4" fill="white"/>
<circle cx="102" cy="58" r="4" fill="white"/>
<circle cx="116" cy="58" r="4" fill="white"/>
<circle cx="4" cy="76" r="4" fill="white"/>
<circle cx="18" cy="76" r="4" fill="white"/>
<circle cx="32" cy="76" r="4" fill="white"/>
<circle cx="46" cy="76" r="4" fill="white"/>
<circle cx="60" cy="76" r="4" fill="white"/>
<circle cx="74" cy="76" r="4" fill="white"/>
<circle cx="88" cy="76" r="4" fill="white"/>
<circle cx="102" cy="76" r="4" fill="white"/>
<circle cx="116" cy="76" r="4" fill="white"/>
<circle cx="4" cy="94" r="4" fill="white"/>
<circle cx="18" cy="94" r="4" fill="white"/>
<circle cx="32" cy="94" r="4" fill="white"/>
<circle cx="46" cy="94" r="4" fill="white"/>
<circle cx="60" cy="94" r="4" fill="white"/>
<circle cx="74" cy="94" r="4" fill="white"/>
<circle cx="88" cy="94" r="4" fill="white"/>
<circle cx="102" cy="94" r="4" fill="white"/>
<circle cx="116" cy="94" r="4" fill="white"/>
<circle cx="4" cy="112" r="4" fill="white"/>
<circle cx="18" cy="112" r="4" fill="white"/>
<circle cx="32" cy="112" r="4" fill="white"/>
<circle cx="46" cy="112" r="4" fill="white"/>
<circle cx="60" cy="112" r="4" fill="white"/>
<circle cx="74" cy="112" r="4" fill="white"/>
<circle cx="88" cy="112" r="4" fill="white"/>
<circle cx="102" cy="112" r="4" fill="white"/>
<circle cx="116" cy="112" r="4" fill="white"/>
<circle cx="4" cy="130" r="4" fill="white"/>
<circle cx="18" cy="130" r="4" fill="white"/>
<circle cx="32" cy="130" r="4" fill="white"/>
<circle cx="46" cy="130" r="4" fill="white"/>
<circle cx="60" cy="130" r="4" fill="white"/>
<circle cx="74" cy="130" r="4" fill="white"/>
<circle cx="88" cy="130" r="4" fill="white"/>
<circle cx="102" cy="130" r="4" fill="white"/>
<circle cx="116" cy="130" r="4" fill="white"/>
<circle cx="4" cy="148" r="4" fill="white"/>
<circle cx="18" cy="148" r="4" fill="white"/>
<circle cx="32" cy="148" r="4" fill="white"/>
<circle cx="46" cy="148" r="4" fill="white"/>
<circle cx="60" cy="148" r="4" fill="white"/>
<circle cx="74" cy="148" r="4" fill="white"/>
<circle cx="88" cy="148" r="4" fill="white"/>
<circle cx="102" cy="148" r="4" fill="white"/>
<circle cx="116" cy="148" r="4" fill="white"/>
<circle cx="4" cy="166" r="4" fill="white"/>
<circle cx="18" cy="166" r="4" fill="white"/>
<circle cx="32" cy="166" r="4" fill="white"/>
<circle cx="46" cy="166" r="4" fill="white"/>
<circle cx="60" cy="166" r="4" fill="white"/>
<circle cx="74" cy="166" r="4" fill="white"/>
<circle cx="88" cy="166" r="4" fill="white"/>
<circle cx="102" cy="166" r="4" fill="white"/>
<circle cx="116" cy="166" r="4" fill="white"/>
<circle cx="4" cy="184" r="4" fill="white"/>
<circle cx="18" cy="184" r="4" fill="white"/>
<circle cx="32" cy="184" r="4" fill="white"/>
<circle cx="46" cy="184" r="4" fill="white"/>
<circle cx="60" cy="184" r="4" fill="white"/>
<circle cx="74" cy="184" r="4" fill="white"/>
<circle cx="88" cy="184" r="4" fill="white"/>
<circle cx="102" cy="184" r="4" fill="white"/>
<circle cx="116" cy="184" r="4" fill="white"/>
<circle cx="4" cy="202" r="4" fill="white"/>
<circle cx="18" cy="202" r="4" fill="white"/>
<circle cx="32" cy="202" r="4" fill="white"/>
<circle cx="46" cy="202" r="4" fill="white"/>
<circle cx="60" cy="202" r="4" fill="white"/>
<circle cx="74" cy="202" r="4" fill="white"/>
<circle cx="88" cy="202" r="4" fill="white"/>
<circle cx="102" cy="202" r="4" fill="white"/>
<circle cx="116" cy="202" r="4" fill="white"/>
<circle cx="4" cy="220" r="4" fill="white"/>
<circle cx="18" cy="220" r="4" fill="white"/>
<circle cx="32" cy="220" r="4" fill="white"/>
<circle cx="46" cy="220" r="4" fill="white"/>
<circle cx="60" cy="220" r="4" fill="white"/>
<circle cx="74" cy="220" r="4" fill="white"/>
<circle cx="88" cy="220" r="4" fill="white"/>
<circle cx="102" cy="220" r="4" fill="white"/>
<circle cx="116" cy="220" r="4" fill="white"/>
</svg>
