<svg width="25" height="24" viewBox="0 0 25 24" fill="none" xmlns="http://www.w3.org/2000/svg">
<path d="M22.8888 0H1.54189C0.805957 0 0.215332 0.590625 0.215332 1.32656V22.6781C0.215332 23.4094 0.805957 24 1.54189 24H13.0356V14.7047H9.90908V11.0812H13.0356V8.40937C13.0356 5.31094 14.9294 3.62344 17.695 3.62344C19.0216 3.62344 20.156 3.72188 20.4888 3.76406V7.00312H18.5716C17.0669 7.00312 16.7763 7.71562 16.7763 8.76562V11.0766H20.3622L19.8935 14.7H16.7716V24H22.8888C23.62 24 24.2153 23.4047 24.2153 22.6734V1.32656C24.2153 0.590625 23.62 0 22.8888 0Z" fill="white"/>
</svg>
