<svg width="25" height="24" viewBox="0 0 25 24" fill="none" xmlns="http://www.w3.org/2000/svg">
<g clip-path="url(#clip0_425:17171)">
<path d="M14.7009 12.2602C14.7009 10.9632 13.6408 9.90773 12.3378 9.90773C11.035 9.90773 9.9749 10.9632 9.9749 12.2602C9.9749 13.5576 11.035 14.6128 12.3378 14.6128C13.6408 14.6128 14.7009 13.5576 14.7009 12.2602ZM18.2117 0.0141602H6.21854C2.91429 0.0141602 0.226074 2.69069 0.226074 5.98049V7.64287H9.04399C9.97444 6.98297 11.1108 6.59314 12.3378 6.59314C13.5648 6.59314 14.7013 6.98297 15.6318 7.64287H24.2041V5.98049C24.2041 2.69066 21.5159 0.0141602 18.2117 0.0141602ZM20.6385 5.6886C20.6385 6.05318 20.339 6.35153 19.9727 6.35153H17.9154C17.5492 6.35153 17.2496 6.05318 17.2496 5.6886V3.64015C17.2496 3.27559 17.5491 2.97722 17.9154 2.97722H19.9727C20.339 2.97722 20.6385 3.27554 20.6385 3.64015V5.6886ZM18.03 12.2602C18.03 15.3854 15.4764 17.9274 12.3378 17.9274C9.19912 17.9274 6.64571 15.3854 6.64571 12.2602C6.64571 11.3999 6.84035 10.5839 7.18648 9.85258H0.226074V18.0189C0.226074 21.3089 2.91429 23.9852 6.21854 23.9852H18.2117C21.5159 23.9852 24.2041 21.3089 24.2041 18.0189V9.85258H17.4893C17.8354 10.5839 18.03 11.3999 18.03 12.2602Z" fill="white"/>
</g>
<defs>
<clipPath id="clip0_425:17171">
<rect width="24" height="24" fill="white" transform="translate(0.215332)"/>
</clipPath>
</defs>
</svg>
