<svg width="25" height="24" viewBox="0 0 25 24" fill="none" xmlns="http://www.w3.org/2000/svg">
<path d="M24.1685 4.59247C23.2871 4.98285 22.3398 5.24628 21.346 5.36366C22.3603 4.75762 23.1405 3.7967 23.5074 2.65288C22.5574 3.2139 21.5062 3.622 20.3865 3.84177C19.4899 2.88902 18.2128 2.29395 16.7987 2.29395C14.0843 2.29395 11.8846 4.48877 11.8846 7.19409C11.8846 7.57765 11.9284 7.9516 12.0119 8.31063C7.92733 8.10588 4.30675 6.15537 1.88251 3.19076C1.45954 3.91422 1.21725 4.75631 1.21725 5.65448C1.21725 7.35522 2.08509 8.85528 3.40331 9.73292C2.59704 9.70698 1.84008 9.48721 1.17758 9.12006C1.17758 9.14054 1.17758 9.16098 1.17758 9.1815C1.17758 11.5565 2.87217 13.5357 5.11985 13.9861C4.70782 14.098 4.27391 14.1581 3.82492 14.1581C3.50871 14.1581 3.20069 14.1267 2.89959 14.0694C3.52513 16.0158 5.34024 17.434 7.4907 17.4722C5.80841 18.7866 3.68944 19.5701 1.38707 19.5701C0.990069 19.5701 0.59863 19.5469 0.215332 19.5018C2.39044 20.8927 4.97341 21.7035 7.74941 21.7035C16.7892 21.7035 21.7321 14.2359 21.7321 7.76057C21.7321 7.54761 21.7266 7.33745 21.7183 7.12724C22.6765 6.43793 23.5102 5.57531 24.1686 4.59252L24.1685 4.59247Z" fill="white"/>
</svg>
